<?xml version="1.0" encoding="UTF-8"?><svg xmlns="http://www.w3.org/2000/svg" xmlns:xlink="http://www.w3.org/1999/xlink" fill-opacity="1" color-rendering="auto" color-interpolation="auto" text-rendering="auto" stroke="black" stroke-linecap="square" width="800" stroke-miterlimit="10" shape-rendering="auto" stroke-opacity="1" fill="black" stroke-dasharray="none" font-weight="normal" stroke-width="1" height="180" font-family="'Dialog'" font-style="normal" stroke-linejoin="miter" font-size="12px" stroke-dashoffset="0" image-rendering="auto">
  <!--Generated by ySVG 2.5-->
  <defs id="genericDefs"/>
  <g>
    <defs id="defs1">
      <clipPath clipPathUnits="userSpaceOnUse" id="clipPath1">
        <path d="M0 0 L800 0 L800 180 L0 180 L0 0 Z"/>
      </clipPath>
      <clipPath clipPathUnits="userSpaceOnUse" id="clipPath2">
        <path d="M91 161 L891 161 L891 341 L91 341 L91 161 Z"/>
      </clipPath>
    </defs>
    <g fill="white" text-rendering="geometricPrecision" shape-rendering="geometricPrecision" transform="translate(-91,-161)" stroke="white">
      <rect x="91" width="800" height="180" y="161" clip-path="url(#clipPath2)" stroke="none"/>
    </g>
    <g fill="white" text-rendering="geometricPrecision" shape-rendering="geometricPrecision" transform="matrix(1,0,0,1,-91,-161)" stroke="white">
      <path d="M338 223 Q338 213 348 213 L495 213 Q505 213 505 223 L505 305 Q505 315 495 315 L348 315 Q338 315 338 305 Z" stroke="none" clip-path="url(#clipPath2)"/>
    </g>
    <g text-rendering="geometricPrecision" stroke-miterlimit="1.45" shape-rendering="geometricPrecision" transform="matrix(1,0,0,1,-91,-161)" stroke-linecap="butt">
      <path fill="none" d="M338 223 Q338 213 348 213 L495 213 Q505 213 505 223 L505 305 Q505 315 495 315 L348 315 Q338 315 338 305 Z" clip-path="url(#clipPath2)"/>
      <text x="382.0869" xml:space="preserve" y="268.5352" clip-path="url(#clipPath2)" font-family="sans-serif" stroke="none">Master Server</text>
    </g>
    <g fill="white" text-rendering="geometricPrecision" shape-rendering="geometricPrecision" transform="matrix(1,0,0,1,-91,-161)" stroke="white">
      <rect x="708.5" width="167" height="130" y="196" clip-path="url(#clipPath2)" stroke="none"/>
    </g>
    <g text-rendering="geometricPrecision" stroke-miterlimit="1.45" shape-rendering="geometricPrecision" transform="matrix(1,0,0,1,-91,-161)" stroke-linecap="butt">
      <rect fill="none" x="708.5" width="167" height="130" y="196" clip-path="url(#clipPath2)"/>
      <text x="722.4956" font-size="10px" y="187.8906" clip-path="url(#clipPath2)" font-family="sans-serif" stroke="none" xml:space="preserve">Local SSH: Target user space</text>
    </g>
    <g fill="white" text-rendering="geometricPrecision" shape-rendering="geometricPrecision" transform="matrix(1,0,0,1,-91,-161)" stroke="white">
      <path d="M722.5 231 Q722.5 221 732.5 221 L851.5 221 Q861.5 221 861.5 231 L861.5 297 Q861.5 307 851.5 307 L732.5 307 Q722.5 307 722.5 297 Z" stroke="none" clip-path="url(#clipPath2)"/>
    </g>
    <g text-rendering="geometricPrecision" stroke-miterlimit="1.45" shape-rendering="geometricPrecision" transform="matrix(1,0,0,1,-91,-161)" stroke-linecap="butt">
      <path fill="none" d="M722.5 231 Q722.5 221 732.5 221 L851.5 221 Q861.5 221 861.5 231 L861.5 297 Q861.5 307 851.5 307 L732.5 307 Q722.5 307 722.5 297 Z" clip-path="url(#clipPath2)"/>
      <text x="755.2383" xml:space="preserve" y="268.5352" clip-path="url(#clipPath2)" font-family="sans-serif" stroke="none">Client Server</text>
    </g>
    <g fill="white" text-rendering="geometricPrecision" shape-rendering="geometricPrecision" transform="matrix(1,0,0,1,-91,-161)" stroke="white">
      <path d="M106.5 254 Q106.5 244 116.5 244 L176.5 244 Q186.5 244 186.5 254 L186.5 274 Q186.5 284 176.5 284 L116.5 284 Q106.5 284 106.5 274 Z" stroke="none" clip-path="url(#clipPath2)"/>
    </g>
    <g text-rendering="geometricPrecision" stroke-miterlimit="1.45" shape-rendering="geometricPrecision" transform="matrix(1,0,0,1,-91,-161)" stroke-linecap="butt">
      <path fill="none" d="M106.5 254 Q106.5 244 116.5 244 L176.5 244 Q186.5 244 186.5 254 L186.5 274 Q186.5 284 176.5 284 L116.5 284 Q106.5 284 106.5 274 Z" clip-path="url(#clipPath2)"/>
      <text x="115.5039" xml:space="preserve" y="268.5352" clip-path="url(#clipPath2)" font-family="sans-serif" stroke="none">Login User</text>
    </g>
    <g text-rendering="geometricPrecision" stroke-miterlimit="1.45" shape-rendering="geometricPrecision" transform="matrix(1,0,0,1,-91,-161)" stroke-linecap="butt">
      <path fill="none" d="M505.0344 264 L714.4655 264" clip-path="url(#clipPath2)"/>
    </g>
    <g text-rendering="geometricPrecision" stroke-miterlimit="1.45" shape-rendering="geometricPrecision" transform="matrix(1,0,0,1,-91,-161)" stroke-linecap="butt">
      <path d="M722.4655 264 L710.4655 259 L713.4655 264 L710.4655 269 Z" stroke="none" clip-path="url(#clipPath2)"/>
      <text x="531.0859" xml:space="preserve" y="238.5352" clip-path="url(#clipPath2)" font-family="sans-serif" stroke="none">HTTP forward over loopback</text>
      <path fill="none" d="M186.4811 264 L329.9868 264" clip-path="url(#clipPath2)"/>
      <path d="M337.9868 264 L325.9868 259 L328.9868 264 L325.9868 269 Z" clip-path="url(#clipPath2)" stroke="none"/>
      <text x="207.7461" xml:space="preserve" y="238.5352" clip-path="url(#clipPath2)" font-family="sans-serif" stroke="none">HTTP over Internet</text>
    </g>
  </g>
</svg>
